<?xml version="1.0" standalone="no"?>
<!DOCTYPE svg PUBLIC "-//W3C//DTD SVG 20010904//EN"
 "http://www.w3.org/TR/2001/REC-SVG-20010904/DTD/svg10.dtd">
<svg version="1.0" xmlns="http://www.w3.org/2000/svg"
 width="881.000000pt" height="283.000000pt" viewBox="0 0 881.000000 283.000000"
 preserveAspectRatio="xMidYMid meet">

<g transform="translate(0.000000,283.000000) scale(0.100000,-0.100000)"
fill="#000000" stroke="none">
<path d="M382 2115 c-63 -27 -62 -17 -62 -705 0 -426 3 -628 11 -642 25 -47
38 -48 680 -48 659 0 646 -1 682 60 16 26 18 82 20 648 2 675 4 658 -55 688
-40 21 -1227 20 -1276 -1z m811 -304 c28 -13 61 -41 77 -62 46 -64 57 -186 25
-271 -5 -12 2 -29 19 -49 98 -116 53 -336 -80 -395 -40 -17 -446 -22 -452 -5
-2 7 30 11 97 11 l101 0 0 30 0 30 85 0 c82 0 145 15 159 38 4 7 -6 7 -31 0
-21 -6 -73 -8 -118 -4 -44 3 -127 6 -185 7 -58 1 -89 5 -70 8 29 4 22 6 -35
11 -57 5 -46 7 65 8 74 1 186 5 248 9 98 5 115 9 137 29 31 29 34 90 6 125
-19 24 -22 24 -241 27 -202 3 -221 5 -218 20 3 15 25 17 225 17 203 0 220 1
195 15 -21 12 -72 16 -224 18 -163 3 -198 6 -198 18 0 12 31 14 179 14 186 0
253 6 229 21 -7 5 -72 9 -144 9 -137 0 -194 6 -194 21 0 5 78 9 174 9 169 0
174 1 179 22 3 11 0 36 -8 55 -20 49 -63 63 -185 63 -82 0 -100 3 -100 15 0
12 19 15 114 15 121 0 157 -8 194 -42 12 -12 22 -17 22 -11 0 18 -61 64 -118
90 -45 20 -69 23 -162 23 -91 0 -110 3 -110 15 0 12 20 15 118 15 139 -1 178
-8 243 -49 56 -35 63 -27 18 17 -53 51 -102 62 -285 62 -150 0 -185 5 -166 24
4 4 88 6 187 4 166 -3 184 -5 228 -27z m-360 -136 c2 -11 -87 -20 -110 -11 -8
3 -11 11 -8 16 8 14 114 9 118 -5z m247 -80 c0 -13 -23 -15 -150 -15 -127 0
-150 2 -150 15 0 13 23 15 150 15 127 0 150 -2 150 -15z m-230 -294 c0 -12
-34 -17 -82 -12 -60 5 -44 21 22 21 33 0 60 -4 60 -9z m240 0 c0 -6 -5 -13
-11 -16 -15 -10 -149 5 -149 16 0 5 36 9 80 9 44 0 80 -4 80 -9z m-322 -63
c-3 -8 -26 -14 -56 -16 -42 -2 -52 0 -52 12 0 13 12 16 56 16 40 0 55 -4 52
-12z m322 -3 c0 -12 -19 -15 -114 -15 -105 0 -136 6 -119 24 3 3 57 6 120 6
94 0 113 -3 113 -15z m-170 -145 c0 -6 -40 -10 -100 -10 -60 0 -100 4 -100 10
0 6 40 10 100 10 60 0 100 -4 100 -10z"/>
<path d="M990 1060 c0 -28 2 -30 38 -29 30 0 33 2 17 9 -11 5 -15 9 -10 10 6
1 -1 6 -15 11 -20 8 -22 12 -10 19 13 8 12 10 -2 10 -13 0 -18 -8 -18 -30z"/>
</g>
</svg>
